<mxfile host="app.diagrams.net" modified="2024-03-07T09:17:46.212Z" agent="Mozilla/5.0 (X11; Ubuntu; Linux x86_64; rv:123.0) Gecko/20100101 Firefox/123.0" etag="PUJTZreniuCf9ekupBrO" version="24.0.2" type="device">
  <diagram name="Seite-1" id="tGQVsP5RTKU2IKHW3sGT">
    <mxGraphModel dx="518" dy="273" grid="1" gridSize="10" guides="1" tooltips="1" connect="1" arrows="1" fold="1" page="1" pageScale="1" pageWidth="827" pageHeight="1169" math="0" shadow="0">
      <root>
        <mxCell id="0" />
        <mxCell id="1" parent="0" />
        <mxCell id="BbPQiXFv8G7K4hoaXsMD-6" value="a" style="edgeStyle=orthogonalEdgeStyle;rounded=0;orthogonalLoop=1;jettySize=auto;html=1;" parent="1" source="BbPQiXFv8G7K4hoaXsMD-1" target="BbPQiXFv8G7K4hoaXsMD-5" edge="1">
          <mxGeometry relative="1" as="geometry" />
        </mxCell>
        <mxCell id="BbPQiXFv8G7K4hoaXsMD-1" value="" style="ellipse;whiteSpace=wrap;html=1;aspect=fixed;" parent="1" vertex="1">
          <mxGeometry x="280" y="200" width="40" height="40" as="geometry" />
        </mxCell>
        <mxCell id="BbPQiXFv8G7K4hoaXsMD-8" value="a" style="edgeStyle=orthogonalEdgeStyle;rounded=0;orthogonalLoop=1;jettySize=auto;html=1;" parent="1" source="BbPQiXFv8G7K4hoaXsMD-5" target="BbPQiXFv8G7K4hoaXsMD-7" edge="1">
          <mxGeometry relative="1" as="geometry" />
        </mxCell>
        <mxCell id="BbPQiXFv8G7K4hoaXsMD-5" value="" style="ellipse;whiteSpace=wrap;html=1;aspect=fixed;" parent="1" vertex="1">
          <mxGeometry x="400" y="200" width="40" height="40" as="geometry" />
        </mxCell>
        <mxCell id="pTAq9wnIfdgKZrjpTZmF-3" value="a,c" style="edgeStyle=orthogonalEdgeStyle;rounded=0;orthogonalLoop=1;jettySize=auto;html=1;" parent="1" source="BbPQiXFv8G7K4hoaXsMD-7" target="pTAq9wnIfdgKZrjpTZmF-2" edge="1">
          <mxGeometry relative="1" as="geometry" />
        </mxCell>
        <mxCell id="BbPQiXFv8G7K4hoaXsMD-7" value="3" style="ellipse;whiteSpace=wrap;html=1;aspect=fixed;" parent="1" vertex="1">
          <mxGeometry x="520" y="200" width="40" height="40" as="geometry" />
        </mxCell>
        <mxCell id="BbPQiXFv8G7K4hoaXsMD-9" value="" style="endArrow=classic;html=1;strokeColor=none;curved=1;exitX=0.5;exitY=0;exitDx=0;exitDy=0;entryX=0.5;entryY=0;entryDx=0;entryDy=0;" parent="1" source="BbPQiXFv8G7K4hoaXsMD-5" target="BbPQiXFv8G7K4hoaXsMD-1" edge="1">
          <mxGeometry width="50" height="50" relative="1" as="geometry">
            <mxPoint x="440" y="180" as="sourcePoint" />
            <mxPoint x="490" y="130" as="targetPoint" />
          </mxGeometry>
        </mxCell>
        <mxCell id="BbPQiXFv8G7K4hoaXsMD-10" value="b" style="endArrow=classic;html=1;exitX=0;exitY=0;exitDx=0;exitDy=0;entryX=1;entryY=0;entryDx=0;entryDy=0;curved=1;" parent="1" source="BbPQiXFv8G7K4hoaXsMD-5" target="BbPQiXFv8G7K4hoaXsMD-1" edge="1">
          <mxGeometry x="0.05" y="9" width="50" height="50" relative="1" as="geometry">
            <mxPoint x="350" y="220" as="sourcePoint" />
            <mxPoint x="400" y="170" as="targetPoint" />
            <Array as="points">
              <mxPoint x="360" y="180" />
            </Array>
            <mxPoint as="offset" />
          </mxGeometry>
        </mxCell>
        <mxCell id="BbPQiXFv8G7K4hoaXsMD-11" value="c" style="endArrow=classic;html=1;curved=1;entryX=1;entryY=1;entryDx=0;entryDy=0;exitX=0.136;exitY=0.911;exitDx=0;exitDy=0;exitPerimeter=0;" parent="1" target="BbPQiXFv8G7K4hoaXsMD-1" edge="1" source="BbPQiXFv8G7K4hoaXsMD-5">
          <mxGeometry x="0.05" y="-9" width="50" height="50" relative="1" as="geometry">
            <mxPoint x="420" y="240" as="sourcePoint" />
            <mxPoint x="310" y="210" as="targetPoint" />
            <Array as="points">
              <mxPoint x="360" y="260" />
            </Array>
            <mxPoint as="offset" />
          </mxGeometry>
        </mxCell>
        <mxCell id="BbPQiXFv8G7K4hoaXsMD-13" value="b" style="endArrow=classic;html=1;exitX=0.5;exitY=0;exitDx=0;exitDy=0;entryX=0.5;entryY=0;entryDx=0;entryDy=0;curved=1;" parent="1" source="BbPQiXFv8G7K4hoaXsMD-7" target="BbPQiXFv8G7K4hoaXsMD-1" edge="1">
          <mxGeometry x="0.1538" y="33" width="50" height="50" relative="1" as="geometry">
            <mxPoint x="360" y="260" as="sourcePoint" />
            <mxPoint x="410" y="210" as="targetPoint" />
            <Array as="points">
              <mxPoint x="420" y="120" />
            </Array>
            <mxPoint as="offset" />
          </mxGeometry>
        </mxCell>
        <mxCell id="BbPQiXFv8G7K4hoaXsMD-15" value="1" style="ellipse;whiteSpace=wrap;html=1;aspect=fixed;" parent="1" vertex="1">
          <mxGeometry x="282" y="202" width="36" height="36" as="geometry" />
        </mxCell>
        <mxCell id="BbPQiXFv8G7K4hoaXsMD-16" value="2" style="ellipse;whiteSpace=wrap;html=1;aspect=fixed;" parent="1" vertex="1">
          <mxGeometry x="402.5" y="202.5" width="35" height="35" as="geometry" />
        </mxCell>
        <mxCell id="BbPQiXFv8G7K4hoaXsMD-17" value="" style="endArrow=classic;html=1;rounded=0;exitX=0.5;exitY=1;exitDx=0;exitDy=0;strokeColor=none;" parent="1" source="BbPQiXFv8G7K4hoaXsMD-1" edge="1">
          <mxGeometry width="50" height="50" relative="1" as="geometry">
            <mxPoint x="250" y="300" as="sourcePoint" />
            <mxPoint x="300" y="280" as="targetPoint" />
          </mxGeometry>
        </mxCell>
        <mxCell id="pTAq9wnIfdgKZrjpTZmF-2" value="4" style="ellipse;whiteSpace=wrap;html=1;aspect=fixed;" parent="1" vertex="1">
          <mxGeometry x="640" y="200" width="40" height="40" as="geometry" />
        </mxCell>
        <mxCell id="pTAq9wnIfdgKZrjpTZmF-4" value="b,c" style="endArrow=classic;html=1;rounded=0;entryX=0.128;entryY=0.855;entryDx=0;entryDy=0;exitX=1;exitY=1;exitDx=0;exitDy=0;curved=1;entryPerimeter=0;" parent="1" source="BbPQiXFv8G7K4hoaXsMD-1" target="BbPQiXFv8G7K4hoaXsMD-1" edge="1">
          <mxGeometry width="50" height="50" relative="1" as="geometry">
            <mxPoint x="314.142135623731" y="237.50213562373102" as="sourcePoint" />
            <mxPoint x="285.91999999999996" y="238.88" as="targetPoint" />
            <Array as="points">
              <mxPoint x="320" y="273.36" />
              <mxPoint x="280" y="273.36" />
            </Array>
          </mxGeometry>
        </mxCell>
        <mxCell id="pTAq9wnIfdgKZrjpTZmF-5" value="a,b,c" style="endArrow=classic;html=1;rounded=0;entryX=0;entryY=1;entryDx=0;entryDy=0;exitX=1;exitY=1;exitDx=0;exitDy=0;curved=1;" parent="1" source="pTAq9wnIfdgKZrjpTZmF-2" target="pTAq9wnIfdgKZrjpTZmF-2" edge="1">
          <mxGeometry width="50" height="50" relative="1" as="geometry">
            <mxPoint x="680.0021356237374" y="211.71786437626253" as="sourcePoint" />
            <mxPoint x="650" y="270" as="targetPoint" />
            <Array as="points">
              <mxPoint x="680" y="270" />
              <mxPoint x="640" y="270" />
            </Array>
          </mxGeometry>
        </mxCell>
        <mxCell id="c9NfBmXCWW22-_6jV1rs-1" value="" style="endArrow=classic;html=1;rounded=0;entryX=-0.009;entryY=0.489;entryDx=0;entryDy=0;entryPerimeter=0;" edge="1" parent="1" target="BbPQiXFv8G7K4hoaXsMD-1">
          <mxGeometry width="50" height="50" relative="1" as="geometry">
            <mxPoint x="260" y="220" as="sourcePoint" />
            <mxPoint x="280" y="219.64000000000004" as="targetPoint" />
          </mxGeometry>
        </mxCell>
      </root>
    </mxGraphModel>
  </diagram>
</mxfile>
